<?xml version="1.0" standalone="no"?>
<!DOCTYPE svg PUBLIC "-//W3C//DTD SVG 20010904//EN"
 "http://www.w3.org/TR/2001/REC-SVG-20010904/DTD/svg10.dtd">
<svg version="1.0" xmlns="http://www.w3.org/2000/svg"
 width="896.000000pt" height="896.000000pt" viewBox="0 0 896.000000 896.000000"
 preserveAspectRatio="xMidYMid meet">
<metadata>
Created by potrace 1.11, written by Peter Selinger 2001-2013
</metadata>
<g transform="translate(0.000000,896.000000) scale(0.100000,-0.100000)"
fill="#000000" stroke="none">
<path d="M3495 8801 c-2 -2 -32 -5 -67 -7 -35 -2 -83 -6 -108 -9 -25 -3 -58
-7 -75 -9 -16 -2 -50 -6 -75 -10 -25 -4 -58 -10 -75 -12 -50 -8 -100 -17 -155
-29 -14 -3 -36 -7 -49 -10 -13 -2 -47 -11 -75 -19 -28 -8 -62 -17 -76 -20 -24
-4 -138 -40 -170 -53 -8 -3 -22 -7 -31 -9 -17 -4 -139 -52 -249 -100 -129 -55
-331 -166 -459 -251 -20 -13 -44 -29 -55 -36 -10 -6 -33 -23 -51 -37 -18 -14
-43 -32 -55 -40 -12 -8 -34 -25 -49 -37 -14 -12 -55 -45 -91 -74 -86 -71 -313
-294 -372 -366 -25 -32 -54 -68 -65 -80 -78 -92 -161 -211 -270 -388 -17 -27
-69 -124 -115 -215 -71 -140 -115 -234 -214 -456 -49 -110 -207 -544 -218
-600 -3 -10 -11 -38 -20 -62 -8 -23 -15 -43 -14 -45 0 -1 -9 -34 -21 -72 -11
-39 -22 -79 -24 -90 -2 -11 -7 -27 -10 -35 -6 -14 -21 -72 -33 -130 -3 -14
-17 -72 -31 -130 -14 -58 -27 -114 -28 -125 -2 -11 -4 -21 -5 -22 -2 -2 -4 -7
-5 -13 -1 -5 -3 -11 -4 -12 -2 -2 -4 -16 -6 -33 -2 -16 -7 -41 -11 -55 -3 -14
-8 -41 -10 -60 -3 -19 -6 -42 -9 -50 -8 -29 -19 -119 -31 -265 -14 -162 -8
-510 10 -635 3 -19 8 -53 10 -75 17 -138 83 -406 136 -552 11 -29 17 -53 14
-53 -3 0 1 -12 9 -27 15 -27 47 -114 49 -130 1 -5 12 -29 25 -54 13 -26 23
-50 23 -54 0 -3 11 -30 24 -58 40 -88 66 -146 76 -169 6 -13 33 -63 60 -113
27 -49 57 -107 67 -128 10 -20 21 -37 25 -37 5 0 8 -7 8 -15 0 -8 3 -15 8 -15
4 0 13 -15 21 -32 8 -18 17 -35 20 -38 4 -3 31 -43 61 -90 30 -47 61 -91 68
-98 6 -8 17 -23 23 -35 7 -11 15 -26 20 -31 5 -6 45 -58 91 -116 45 -58 87
-110 92 -116 6 -6 29 -33 51 -60 22 -26 56 -65 76 -86 20 -21 34 -38 32 -38
-7 0 302 -305 359 -355 25 -22 65 -56 89 -75 24 -19 50 -42 59 -50 61 -59 441
-326 550 -386 19 -10 37 -21 40 -24 8 -8 50 -32 95 -53 22 -11 42 -22 45 -26
5 -6 225 -116 300 -149 25 -11 70 -31 100 -45 30 -13 107 -43 170 -67 63 -23
122 -45 130 -50 12 -6 75 -26 145 -46 6 -2 48 -15 95 -29 81 -25 96 -29 148
-39 12 -3 26 -7 31 -11 5 -3 22 -7 38 -10 15 -3 44 -7 63 -11 19 -3 42 -8 50
-11 23 -9 206 -43 260 -49 14 -1 25 -3 25 -4 0 -2 17 -4 98 -15 71 -9 305 -10
367 -2 25 3 72 9 105 13 33 3 68 10 78 15 9 6 17 8 17 5 0 -13 179 61 210 86
22 19 48 76 45 101 -1 12 -3 30 -4 39 -3 45 -124 139 -279 217 -45 23 -85 42
-89 42 -8 2 -32 11 -78 30 -11 4 -54 20 -95 34 -41 14 -81 28 -88 30 -7 2 -16
5 -20 6 -4 0 -13 5 -19 11 -7 6 -13 8 -13 5 0 -6 -97 27 -107 36 -3 4 -17 7
-29 7 -13 0 -25 4 -28 9 -3 5 -17 12 -30 15 -14 3 -38 11 -53 18 -15 6 -30 12
-33 12 -10 2 -126 50 -145 60 -11 5 -25 11 -31 12 -5 1 -36 13 -67 28 -32 14
-60 26 -63 26 -3 0 -53 23 -111 50 -58 28 -111 50 -118 50 -7 0 -15 3 -17 8
-1 4 -59 35 -128 69 -147 74 -307 160 -320 173 -3 3 -18 12 -35 20 -16 8 -34
18 -40 23 -5 4 -68 45 -138 92 -70 46 -155 105 -188 130 -32 25 -62 45 -65 45
-3 0 -15 11 -28 25 -13 14 -27 25 -32 25 -5 0 -17 8 -25 17 -9 10 -34 32 -55
49 -111 90 -334 307 -424 414 -25 29 -50 58 -57 65 -6 6 -35 41 -64 76 -29 35
-58 67 -63 71 -6 4 -8 8 -3 8 4 0 -4 12 -17 28 -120 134 -369 551 -470 787
-10 22 -29 67 -43 100 -14 33 -30 69 -35 80 -15 34 -89 249 -94 273 -2 13 -11
42 -19 66 -33 96 -39 289 -10 332 61 94 165 54 178 -69 3 -25 7 -49 10 -54 3
-5 8 -20 11 -34 12 -67 136 -418 166 -471 6 -10 10 -22 10 -27 0 -5 20 -53 45
-106 24 -52 44 -97 45 -100 0 -2 16 -32 35 -66 19 -33 35 -63 35 -65 0 -2 12
-23 27 -47 15 -23 28 -44 28 -47 1 -5 16 -30 72 -117 18 -29 33 -57 33 -63 0
-5 4 -10 9 -10 4 0 19 -20 32 -45 13 -25 27 -45 31 -45 5 0 8 -7 8 -15 0 -8 4
-15 8 -15 4 0 16 -14 26 -31 24 -40 204 -266 250 -314 20 -20 36 -38 36 -40 0
-5 162 -165 244 -242 36 -34 66 -60 66 -58 0 2 15 -10 33 -26 40 -38 191 -152
277 -210 36 -24 67 -47 68 -51 2 -5 9 -8 16 -8 7 0 21 -9 31 -20 10 -11 23
-20 28 -20 6 0 43 -20 83 -45 39 -25 77 -45 83 -45 6 0 11 -5 11 -12 0 -6 3
-9 6 -5 3 3 30 -10 60 -29 30 -19 54 -31 54 -27 0 4 4 3 8 -3 9 -15 346 -189
492 -254 63 -29 180 -78 260 -110 124 -49 206 -80 471 -176 20 -7 65 -26 100
-42 35 -16 80 -35 99 -42 61 -24 293 -144 346 -179 44 -29 134 -139 134 -163
0 -4 5 -19 12 -35 14 -36 17 -48 23 -103 2 -25 5 -45 5 -45 1 0 3 -7 5 -17 6
-34 50 -78 109 -109 34 -18 90 -49 126 -69 36 -21 70 -39 75 -40 6 -1 17 -7
25 -13 54 -42 302 -163 355 -173 11 -2 38 -8 61 -14 24 -7 99 -10 185 -8 129
3 149 6 194 28 102 50 194 175 231 313 15 59 12 193 -6 227 -7 14 -12 25 -11
25 2 0 -4 18 -13 39 -24 58 -74 114 -194 218 -138 120 -171 153 -187 192 -16
37 -15 57 3 79 10 12 21 13 54 5 45 -10 161 -69 194 -99 11 -11 23 -19 27 -19
11 0 74 -57 141 -128 83 -88 88 -86 188 48 124 166 322 308 470 338 116 23 98
-55 -41 -182 -19 -17 -52 -48 -74 -69 -23 -20 -44 -37 -47 -37 -4 0 -13 -11
-20 -25 -7 -14 -15 -23 -17 -21 -3 2 -30 -24 -61 -57 -31 -34 -59 -64 -63 -67
-3 -3 -27 -44 -53 -91 -110 -204 -121 -417 -28 -530 28 -34 67 -69 78 -69 3 0
18 -8 32 -19 32 -22 136 -55 207 -66 58 -9 234 -9 317 -1 132 14 334 100 442
188 110 90 279 283 353 403 45 73 103 177 121 218 12 26 31 66 41 90 29 63
137 412 146 472 4 25 10 48 25 105 7 25 14 56 16 70 3 14 7 33 10 42 3 10 8
30 10 45 3 15 12 59 20 98 8 38 17 85 20 104 3 18 8 43 10 55 2 11 7 37 10 56
3 19 7 46 10 60 8 44 13 102 19 212 5 118 -1 129 -47 89 -13 -11 -32 -28 -44
-38 -37 -31 -147 -128 -158 -138 -6 -5 -34 -28 -61 -50 -28 -22 -55 -44 -61
-50 -6 -5 -37 -28 -69 -50 -32 -22 -77 -55 -101 -72 -24 -18 -49 -33 -54 -33
-6 0 -10 -4 -10 -10 0 -5 -7 -10 -15 -10 -8 0 -15 -4 -15 -10 0 -5 -6 -10 -14
-10 -7 0 -19 -6 -25 -14 -7 -8 -26 -22 -44 -31 -18 -9 -59 -32 -92 -51 -33
-19 -76 -42 -95 -52 -19 -9 -38 -21 -42 -27 -4 -5 -8 -6 -8 -2 0 5 -13 -1 -30
-13 -16 -12 -30 -19 -30 -16 0 2 -39 -13 -86 -36 -48 -22 -92 -41 -98 -43 -6
-1 -23 -7 -37 -13 -31 -12 -197 -71 -204 -72 -3 0 -10 -3 -17 -5 -96 -33 -361
-87 -503 -102 -87 -9 -426 -9 -480 0 -176 31 -200 35 -200 37 0 1 -9 3 -19 5
-76 14 -397 139 -404 157 -2 4 -9 8 -16 8 -6 0 -54 22 -106 50 -52 27 -98 50
-102 50 -4 0 -8 4 -8 8 0 4 -12 13 -27 19 -29 12 -100 52 -118 66 -5 4 -76 49
-157 100 -81 51 -163 106 -183 124 -19 17 -35 29 -35 26 0 -4 -78 58 -116 92
-6 5 -31 26 -54 45 -24 19 -53 44 -65 55 -13 11 -53 47 -89 79 -87 77 -311
300 -404 401 -119 131 -144 190 -144 351 -1 119 11 338 28 504 2 25 6 63 8 85
11 114 23 223 31 270 2 17 7 56 9 88 3 32 8 61 10 66 3 4 8 34 12 67 7 67 12
99 14 99 1 0 3 16 5 35 6 57 15 109 50 291 2 9 6 32 9 50 3 19 8 45 11 59 7
32 17 89 21 115 1 11 3 22 5 25 1 3 3 10 4 15 2 6 4 12 5 15 3 9 8 34 15 80 4
24 8 48 11 51 2 4 6 24 10 45 3 22 12 63 20 93 8 30 12 57 9 59 -3 3 -1 10 4
16 5 6 11 25 14 41 3 17 12 59 22 94 9 35 18 76 21 90 2 14 13 60 24 101 12
41 23 86 26 100 2 14 9 36 14 50 5 14 12 36 14 50 5 26 54 204 63 230 3 8 8
24 10 35 2 11 6 27 10 35 3 8 7 21 9 27 2 11 22 75 80 263 5 14 9 27 9 30 12
45 19 67 23 74 6 11 92 264 97 286 2 8 17 51 35 95 17 44 33 87 35 95 5 19 53
148 64 175 5 11 28 70 51 130 62 165 90 224 109 228 9 2 30 -11 46 -28 49 -50
115 -133 115 -143 0 -6 4 -12 8 -14 14 -5 172 -257 172 -273 0 -2 14 -28 31
-57 18 -29 47 -82 66 -117 19 -35 40 -73 47 -85 8 -11 27 -46 43 -76 16 -30
72 -129 123 -220 51 -91 98 -174 104 -185 6 -11 17 -28 25 -37 8 -10 11 -18 8
-18 -3 0 16 -36 43 -81 28 -44 50 -82 50 -85 0 -2 11 -21 23 -42 13 -20 35
-57 49 -82 14 -25 34 -61 45 -80 58 -103 90 -163 183 -345 56 -110 111 -210
122 -222 33 -35 89 -41 360 -40 314 2 297 -5 280 124 -7 48 -17 113 -23 143
-6 30 -12 64 -14 75 -2 11 -4 20 -5 20 -1 0 -3 9 -5 20 -7 44 -15 82 -25 115
-5 19 -16 64 -25 100 -9 36 -21 81 -26 100 -5 19 -11 40 -13 45 -1 6 -11 37
-21 70 -10 33 -19 65 -21 70 -1 6 -16 48 -34 95 -17 47 -36 99 -41 115 -6 17
-15 39 -19 50 -5 11 -21 49 -35 85 -84 206 -214 438 -359 640 -74 104 -61 87
-146 192 -38 49 -70 90 -70 92 0 2 -15 20 -32 39 -18 20 -49 54 -68 77 -102
123 -431 439 -585 563 -18 15 -135 106 -160 124 -85 65 -126 93 -135 93 -5 0
-10 4 -10 9 0 5 -25 24 -55 42 -30 18 -55 37 -55 41 0 4 -4 8 -9 8 -5 0 -46
22 -90 50 -45 27 -84 49 -86 50 -3 0 -27 11 -54 25 -50 25 -197 86 -216 89 -5
1 -14 4 -20 8 -12 7 -111 35 -147 42 -14 2 -35 9 -46 15 -11 6 -21 8 -24 6 -2
-3 -36 2 -75 10 -73 15 -157 25 -253 30 -30 2 -55 4 -55 5 0 4 -297 5 -300 1z"/>
<path d="M4933 7138 c-9 -11 -86 -222 -98 -268 -2 -8 -18 -60 -36 -115 -18
-55 -34 -103 -35 -107 -1 -5 -2 -9 -4 -10 -1 -2 -3 -10 -5 -18 -2 -8 -20 -67
-40 -130 -20 -63 -38 -122 -40 -130 -2 -8 -15 -55 -30 -105 -15 -49 -33 -112
-40 -140 -8 -27 -23 -84 -35 -125 -12 -41 -23 -82 -25 -90 -2 -8 -9 -30 -14
-49 -6 -19 -8 -38 -5 -42 3 -5 1 -9 -4 -9 -5 0 -9 -6 -9 -12 0 -7 -10 -51 -23
-98 -12 -47 -23 -92 -25 -100 -2 -8 -15 -62 -30 -120 -30 -121 -33 -136 -40
-172 -3 -14 -14 -66 -26 -115 -22 -91 -25 -104 -35 -163 -4 -19 -9 -39 -12
-44 -3 -5 -7 -25 -9 -45 -7 -59 -9 -66 -15 -76 -3 -6 -9 -30 -12 -55 -3 -25
-8 -56 -11 -70 -3 -14 -8 -38 -10 -55 -3 -16 -10 -55 -16 -85 -6 -30 -12 -71
-15 -90 -2 -19 -6 -46 -10 -59 -3 -13 -7 -45 -10 -70 -2 -25 -7 -57 -9 -71 -6
-27 -14 -86 -20 -135 -2 -16 -6 -55 -10 -85 -8 -60 -10 -84 -19 -175 -3 -33
-8 -80 -11 -105 -21 -210 -32 -388 -34 -525 -1 -98 0 -108 22 -170 27 -80 153
-230 382 -456 188 -185 274 -263 351 -318 19 -13 34 -28 34 -33 0 -4 5 -8 10
-8 6 0 43 -24 83 -53 144 -105 238 -160 527 -309 92 -47 257 -119 285 -124 6
-1 30 -9 55 -17 87 -30 223 -61 315 -72 22 -3 56 -8 75 -11 73 -13 268 -12
355 2 50 8 110 17 135 20 25 3 49 9 54 12 5 3 19 6 31 7 65 8 386 102 465 137
19 9 62 26 95 39 33 13 63 28 66 32 3 5 9 8 13 7 9 -1 225 99 236 110 3 3 27
16 55 30 27 14 58 33 69 42 11 10 25 18 32 18 7 0 14 4 16 8 2 5 31 28 66 52
34 24 62 48 62 52 0 4 6 8 14 8 8 0 16 3 18 8 2 4 28 27 58 52 131 107 198
169 375 345 323 323 380 398 445 585 12 36 25 72 28 80 24 70 22 624 -3 772
-2 13 -7 57 -10 98 -11 127 -23 234 -31 285 -3 17 -7 48 -9 70 -3 35 -8 76
-20 165 -2 14 -7 54 -10 90 -4 36 -9 68 -11 72 -2 3 -6 28 -9 55 -3 26 -7 57
-9 68 -2 11 -7 49 -12 85 -8 64 -9 72 -14 88 -1 4 -2 11 -1 15 1 5 -6 50 -15
100 -9 51 -17 103 -19 117 -9 64 -13 89 -24 145 -6 33 -14 71 -17 85 -3 14 -7
37 -8 51 -2 14 -5 30 -8 35 -3 5 -9 31 -12 58 -4 27 -11 56 -16 65 -4 9 -11
35 -14 57 -4 23 -10 55 -15 72 -5 17 -7 33 -3 36 3 3 0 6 -7 6 -7 0 -10 3 -7
8 2 4 -2 32 -10 62 -17 62 -22 82 -28 108 -2 9 -12 44 -21 77 -9 33 -25 92
-35 130 -10 39 -27 102 -38 140 -63 223 -94 338 -96 349 -1 6 -5 16 -8 22 -4
6 -9 21 -12 35 -8 43 -43 123 -58 133 -11 7 -22 3 -41 -16 -27 -27 -147 -221
-147 -238 0 -5 -4 -10 -10 -10 -5 0 -10 -4 -10 -9 0 -5 -28 -60 -63 -123 -34
-62 -74 -135 -87 -163 -14 -27 -28 -52 -31 -55 -3 -3 -19 -32 -35 -65 -16 -33
-32 -61 -36 -63 -5 -2 -8 -12 -8 -22 0 -10 -3 -20 -7 -22 -5 -1 -18 -23 -30
-48 -126 -258 -173 -355 -173 -363 0 -5 -8 -21 -19 -35 -10 -15 -22 -38 -26
-52 -8 -25 -77 -180 -95 -212 -6 -10 -10 -25 -10 -33 0 -8 -4 -15 -10 -15 -5
0 -10 -6 -10 -14 0 -15 -24 -70 -99 -229 -28 -59 -51 -111 -51 -114 0 -7 -58
-63 -65 -63 -3 0 -15 -2 -28 -4 -12 -3 -182 -8 -377 -11 -195 -3 -433 -7 -528
-10 -95 -2 -183 0 -195 4 -32 13 -61 41 -80 81 -10 19 -22 42 -27 50 -29 46
-220 394 -220 401 0 5 -4 9 -10 9 -5 0 -10 6 -10 13 0 7 -11 29 -25 48 -13 20
-21 39 -18 43 4 3 2 6 -4 6 -6 0 -16 15 -24 33 -7 17 -15 34 -18 37 -4 3 -13
19 -21 35 -8 17 -17 32 -20 35 -5 5 -28 48 -74 138 -10 20 -21 39 -25 42 -3 3
-7 12 -9 20 -2 8 -9 22 -15 30 -14 17 -17 24 -82 145 -26 50 -51 95 -55 100
-4 6 -24 42 -45 80 -21 39 -68 124 -105 190 -37 66 -87 156 -110 200 -48 90
-143 238 -175 273 -17 18 -24 21 -32 10z m302 -3772 c42 -10 138 -46 151 -57
8 -6 14 -8 14 -4 0 4 7 1 16 -6 18 -15 49 -34 79 -47 11 -6 33 -22 48 -36 15
-14 32 -26 37 -26 4 0 27 -21 50 -47 36 -42 41 -52 36 -82 -3 -19 -11 -40 -18
-47 -23 -22 -84 -19 -143 6 -11 5 -47 18 -80 30 -33 11 -69 24 -80 29 -30 13
-72 30 -97 40 -13 5 -44 18 -70 30 -26 12 -51 21 -55 21 -5 0 -18 15 -30 33
-29 42 -30 96 -2 131 35 44 65 51 144 32z m2588 -117 c49 -26 84 -90 71 -131
-5 -17 -59 -61 -79 -64 -5 -1 -37 -9 -70 -18 -33 -9 -71 -19 -84 -22 -14 -3
-56 -14 -95 -24 -39 -11 -82 -21 -96 -24 -14 -3 -36 -8 -50 -11 -75 -20 -159
12 -154 57 1 13 3 28 3 35 2 23 64 74 130 107 62 31 187 77 221 82 61 7 116
17 119 20 9 8 63 4 84 -7z"/>
</g>
</svg>
