<svg id="Layer_1" data-name="Layer 1" xmlns="http://www.w3.org/2000/svg" viewBox="0 0 55.61 53.91"><defs><style>.cls-1{fill:none;}.cls-2{fill:#fff;}</style></defs><path class="cls-1" d="M61.77,45.66a6.16,6.16,0,0,0-2.92.88c-.3.23-.53.55-.3.89.11.15.51.19.75.14.84-.17,1.67-.4,2.51-.63.36-.1.68-.35.54-.74A.8.8,0,0,0,61.77,45.66Z" transform="translate(-13.36 -11.16)"/><path class="cls-1" d="M45.45,45a.72.72,0,0,0-.59.47.71.71,0,0,0,.49.91c.87.33,1.74.66,2.62,1a.48.48,0,0,0,.52-.17.57.57,0,0,0-.06-.55A5.59,5.59,0,0,0,45.45,45Z" transform="translate(-13.36 -11.16)"/><path class="cls-2" d="M63.24,53a19.46,19.46,0,0,1-7.9,3.31c-4.42.64-6.81-.2-11.84-3.45a35.93,35.93,0,0,1-5.29-4.83c-.86-.88-.74-1.64-.71-2.82a65.1,65.1,0,0,1,1.06-8.68,87,87,0,0,1,4.17-15c.26-.75.58-1.49.87-2.23.16-.38.33-.37.58-.06a13.86,13.86,0,0,1,1.35,1.88c.48.82,2.44,4.45,4.2,7.45.66,1.14,1.26,2.32,1.85,3.5.28.56.38.8,1.28.79.69,0,1.39,0,2.09,0,1.07,0,1.09,0,.91-1a29.48,29.48,0,0,0-2-6.91,20.2,20.2,0,0,0-1.76-3.19,30.55,30.55,0,0,0-8-8,12.71,12.71,0,0,0-6-2.38,18.47,18.47,0,0,0-5,.11A20.06,20.06,0,0,0,17.87,22.27a42.55,42.55,0,0,0-3.78,10.47,20.58,20.58,0,0,0-.37,9.1,26.55,26.55,0,0,0,5.82,11.54,29.23,29.23,0,0,0,17.58,10,11.63,11.63,0,0,0,4.16.08A4.72,4.72,0,0,0,42.74,63a.87.87,0,0,0,.1-1.59,7.47,7.47,0,0,0-1.71-1c-1.15-.47-2.35-.83-3.52-1.27C32.87,57.32,28.47,55,25,51.18a24.73,24.73,0,0,1-5.63-9.87,4.48,4.48,0,0,1-.16-2,.83.83,0,0,1,.54-.49c.34,0,.41.19.54.37s.08.4.13.6A24.46,24.46,0,0,0,21.51,43a22.1,22.1,0,0,0,1.79,3.49,22.69,22.69,0,0,0,8.88,8.42A39.33,39.33,0,0,0,38.84,58a23.12,23.12,0,0,1,2.55,1,15.8,15.8,0,0,1,2.36,1.19,2.66,2.66,0,0,1,1,2,1,1,0,0,0,.65.86c1,.53,2,1.16,3,1.62a5.47,5.47,0,0,0,2.1.46A2.4,2.4,0,0,0,53,63.58a2.69,2.69,0,0,0-.29-3c-.43-.51-1.43-1.23-1.85-1.7-.22-.27-.39-.66-.09-.83s1.84.74,2.43,1.44.6.68,1.12,0A6.07,6.07,0,0,1,57,57.3c.26-.09.81-.23.86,0s-.22.52-.4.7c-.53.55-1.12,1-1.66,1.59a4.52,4.52,0,0,0-1.34,3.07C54.41,64.5,56.54,65,58,64.91a5.68,5.68,0,0,0,3.85-1.47,11.85,11.85,0,0,0,3.32-5.35,47,47,0,0,0,1.18-5c.16-.86.43-2.88.11-2.68C66,50.75,64.65,52.09,63.24,53Z" transform="translate(-13.36 -11.16)"/><path class="cls-2" d="M67.48,30.61c-.52-2.62-1.28-5.19-2-7.78-.09-.37-.33-1.07-.49-1.07s-.52.55-.7.87a83.69,83.69,0,0,0-4.6,9.12c-.23.58-.54,1.13-.78,1.71a.91.91,0,0,1-1,.59c-2,0-4.11.06-6.16.12A.79.79,0,0,1,51,33.7c-.68-1.25-1.4-2.49-2.09-3.73-1.19-2.16-2.37-4.33-3.58-6.48a10.73,10.73,0,0,0-1.28-2c-.12.05-.23.47-.29.63a108.36,108.36,0,0,0-3.8,14,66.23,66.23,0,0,0-1.11,9.62,2.29,2.29,0,0,0,.52,1.51,22.57,22.57,0,0,0,2.27,2.45,19.63,19.63,0,0,0,5.58,4,12.59,12.59,0,0,0,6.43,1.68,18.92,18.92,0,0,0,6.67-1.94,10.82,10.82,0,0,0,2-1.1A32.14,32.14,0,0,0,67.09,48a6.09,6.09,0,0,0,1.81-3.22,21.47,21.47,0,0,0-.06-4.2C68.66,38.41,68,33.16,67.48,30.61Zm-19,16.5a.47.47,0,0,1-.52.17c-.88-.29-1.75-.62-2.62-1a.71.71,0,0,1-.49-.91.72.72,0,0,1,.59-.47,5.66,5.66,0,0,1,3,1.61A.57.57,0,0,1,48.49,47.11Zm13.32-.17c-.84.23-1.67.46-2.52.63a.9.9,0,0,1-.74-.14c-.23-.33,0-.66.29-.88a6.15,6.15,0,0,1,2.93-.89.8.8,0,0,1,.58.54C62.49,46.59,62.17,46.84,61.81,46.94Z" transform="translate(-13.36 -11.16)"/></svg>