<svg id="Layer_1" data-name="Layer 1" xmlns="http://www.w3.org/2000/svg" viewBox="0 0 72.64 55.38"><defs><style>.cls-1{fill:none;}.cls-2{fill:#fff;}</style></defs><path class="cls-1" d="M61.45,48.93a5.16,5.16,0,0,0-2.67-.63c-.32,0-.67.12-.7.51s.34.49.65.54c.6.09,1.79.27,1.79.3.31.08.61.19.92.24a.35.35,0,0,0,.39-.54A1,1,0,0,0,61.45,48.93Z" transform="translate(-13.86 -12.89)"/><path class="cls-1" d="M71.29,45.64a3.61,3.61,0,0,0-2.22,1.86.71.71,0,0,0,.11.68.67.67,0,0,0,.59-.17c.6-.42,1.18-.87,1.76-1.33a1.13,1.13,0,0,0,.4-.5.55.55,0,0,0-.16-.55A.61.61,0,0,0,71.29,45.64Z" transform="translate(-13.86 -12.89)"/><path class="cls-2" d="M68.31,62.71q-3.72-2.94-7.47-5.87a3.09,3.09,0,0,0-1-.52,39.6,39.6,0,0,1-6.51-2.84,5.89,5.89,0,0,1-2.93-3,18.2,18.2,0,0,1-1.32-7.31,109.71,109.71,0,0,1,1.55-14.59c.11-.7.32-1.37.49-2.06.07-.27.2-.4.46-.17a5.18,5.18,0,0,1,.41.4c1.31,1.49,2.65,2.95,3.9,4.49,1.42,1.73,2.76,3.53,4.11,5.32a.77.77,0,0,0,1,.32,20.84,20.84,0,0,1,2.23-.58,1.34,1.34,0,0,0,1.18-1.14c.57-2.07.56-2-.84-3.7-1.81-2.16-3.65-4.3-5.31-6.57a45.17,45.17,0,0,0-8.33-8.06,16.36,16.36,0,0,0-8-3.37,23.18,23.18,0,0,0-9.49-.06c-3.33.64-10.17,4.12-12.65,6.83s-3.82,4.5-4.74,7.39a24.62,24.62,0,0,0-.91,11.28,15.91,15.91,0,0,0,2.75,7c.48.68,1,1.34,1.43,2.05a21.06,21.06,0,0,0,7,6.48,32.34,32.34,0,0,0,9.11,3.73,20.59,20.59,0,0,0,9.14.28A7.84,7.84,0,0,0,47,56.85a1,1,0,0,0-.13-1.76,3.73,3.73,0,0,0-1.35-.46,22.23,22.23,0,0,0-3.16-.07,16.09,16.09,0,0,1-4.49-.24A19.48,19.48,0,0,1,29.1,50a23.69,23.69,0,0,1-6.41-8.16,11.83,11.83,0,0,1-1.32-5.2c0-.59.22-.8.37-.84.54-.22.59.73.72,1.32a33.42,33.42,0,0,0,1.46,4.26A19.41,19.41,0,0,0,28,47.06a18.33,18.33,0,0,0,4.66,4c1,.52,1.07.57,1.81-.36.12-.15.85-1.14,1-1.3a20.52,20.52,0,0,0,2.44-4.07,17.83,17.83,0,0,0,1.39-9.66c-.16-1.23-.41-2.46-.67-3.68-.13-.6-.33-1.53.27-1.8.57-.06.92,1.2,1.05,1.9.31,1.61.66,3.2.85,4.82a17.51,17.51,0,0,1-2.28,10.43,52.19,52.19,0,0,1-2.89,4.41c-.24.35-.28.54.16.69.28.09.53.22.81.3a15.22,15.22,0,0,0,5.89.53,9.51,9.51,0,0,1,5.16.67,2.15,2.15,0,0,1,1.45,2.26,1.11,1.11,0,0,0,.49,1.06c.77.63,1.58,1.21,2.31,1.87a52,52,0,0,0,9.88,6.76,24.32,24.32,0,0,0,6.4,2.28A3.37,3.37,0,0,0,70.32,68a1.13,1.13,0,0,0,.78-1.09,3,3,0,0,0-.33-1.56A8.85,8.85,0,0,0,68.31,62.71Z" transform="translate(-13.86 -12.89)"/><path class="cls-2" d="M76.6,45.2a10.7,10.7,0,0,0-.29-5.77c-.55-2-1-4-1.59-5.93a67.61,67.61,0,0,0-3-8.82c-.21-.49-.65-1.39-1-1.39s-.65.84-.88,1.34c-.77,1.72-1.52,3.46-2.19,5.22C67,31.88,66.28,34,65.6,36a1.68,1.68,0,0,1-1.28,1.25c-1.36.34-2.71.77-4.07,1.12a.8.8,0,0,1-.65-.19,8.83,8.83,0,0,1-.9-1.12c-.47-.65-.91-1.32-1.39-2-1.12-1.48-2.24-3-3.39-4.42a19.26,19.26,0,0,0-1.9-2.3,2.31,2.31,0,0,0-.18.7,98.12,98.12,0,0,0-1.45,12.57,20.09,20.09,0,0,0,.83,7.39,5.61,5.61,0,0,0,3.06,3.5c1.12.53,2.26,1,3.39,1.58a26.67,26.67,0,0,0,7.27,2.08,7.33,7.33,0,0,0,5.36-1.34,13.42,13.42,0,0,0,3.9-4A20.56,20.56,0,0,0,76.6,45.2ZM61.44,49.89c-.31,0-.61-.16-.92-.24,0,0-1.19-.21-1.79-.3-.31-.05-.68-.1-.65-.54s.38-.5.7-.51a5.16,5.16,0,0,1,2.67.63,1,1,0,0,1,.37.42A.35.35,0,0,1,61.44,49.89Zm10.49-3.71a1.13,1.13,0,0,1-.4.5c-.58.46-1.16.91-1.76,1.33a.67.67,0,0,1-.59.17.72.72,0,0,1-.11-.69,3.63,3.63,0,0,1,2.22-1.85.61.61,0,0,1,.48,0A.55.55,0,0,1,71.93,46.18Z" transform="translate(-13.86 -12.89)"/><path class="cls-2" d="M85.83,54.39a93.77,93.77,0,0,0-7.46-6.76c-1-.74-1-.81-1.39.37a16.61,16.61,0,0,1-2.57,4.69l-.27.4c-.35.54-.34.56.19.85s1.13.6,1.68.93a39.75,39.75,0,0,0,6.28,2.85,12,12,0,0,0,2.5.33,1.71,1.71,0,0,0,.89-.26A2.32,2.32,0,0,0,85.83,54.39Z" transform="translate(-13.86 -12.89)"/></svg>