<svg id="Layer_1" data-name="Layer 1" xmlns="http://www.w3.org/2000/svg" viewBox="0 0 69.61 39.98"><defs><style>.cls-1{fill:none;}.cls-2{fill:#fff;}</style></defs><path class="cls-1" d="M59,31.89c-.46,0-.8.11-.91.54s.22.61.56.72c.79.27,1.59.53,2.39.78.29.09.61,0,.69-.28a.72.72,0,0,0-.17-.64A4.77,4.77,0,0,0,59,31.89Z" transform="translate(-2.48 -10.67)"/><path class="cls-2" d="M64.21,22.45A1.25,1.25,0,0,1,63.93,21c.69-1.85,1.37-3.7,2-5.56.48-1.42.91-2.86,1.34-4.3.13-.42,0-.51-.41-.36-4,1.35-7.88,3.06-10.9,6.2a3.91,3.91,0,0,1-2.6,1.24A24.8,24.8,0,0,0,44,21.06a.86.86,0,0,1-1,0c-.88-.47-1.77-.92-2.68-1.34A25,25,0,0,0,32.9,17.4a51,51,0,0,0-13.47,0c-6.51.93-11.18,4.41-14.63,10.12A13.89,13.89,0,0,0,2.87,32,24.07,24.07,0,0,0,3,41.28c.32,1.49,1.14,3.89,2.47,4.5,1.56.72,3.15,1.39,4.76,2A41.82,41.82,0,0,0,21.4,50.1c2.24.17,4.48.35,6.73.46a26.41,26.41,0,0,0,5.62-.12c1.63-.28,3.27-.54,4.91-.76a26.12,26.12,0,0,0,9-3A2.88,2.88,0,0,0,49,45a.88.88,0,0,0-.85-1.31,8.22,8.22,0,0,0-2,.14c-2,.4-3.9.89-5.86,1.27a28,28,0,0,1-3.17.36c-2.24.15-4.48.36-6.73.36a45.23,45.23,0,0,1-10-1.19,21.26,21.26,0,0,1-6.82-3c-.17-.13-.5-.59-.22-.89s1.23.37,1.83.61c1,.4,2,.88,3,1.28,4.4,1.72,9,2,13.66,1.9.47,0,.59-.2.58-.62,0-1.06,0-2.13,0-3.19A15.37,15.37,0,0,0,30,33.16a15.26,15.26,0,0,1-.89-1.76c-.08-.16-.12-.58.13-.72s.68.45.78.59a14.15,14.15,0,0,1,1.82,2.78A20.33,20.33,0,0,1,34,43.38c0,.15,0,.31,0,.47,0,.39.13.59.54.55l1.58-.14a40.44,40.44,0,0,0,8-1.2,12.24,12.24,0,0,1,4.17-.53,1.89,1.89,0,0,1,1.76,1A2.61,2.61,0,0,1,50,45.5c-.09.25-.18.49-.35.91,1.09-.26,2-.43,2.89-.72a26.1,26.1,0,0,0,3.66-1.41,3.19,3.19,0,0,0,1.5-4.46c-.12-.28-.24-.56-.42-1a11.47,11.47,0,0,0,2.41.71,10.12,10.12,0,0,0,5.49-.81,2.27,2.27,0,0,0,1.43-2.59,5.47,5.47,0,0,1,0-1.4c.17-1.11.37-2.22.64-3.3A7.8,7.8,0,0,0,66.81,26,15.18,15.18,0,0,0,64.21,22.45Zm-2.5,11.2c-.08.32-.4.37-.69.28-.8-.25-1.6-.51-2.39-.78-.35-.11-.66-.28-.56-.72s.45-.56.92-.55A4.93,4.93,0,0,1,61.54,33,.75.75,0,0,1,61.71,33.65Z" transform="translate(-2.48 -10.67)"/><path class="cls-2" d="M66.67,17.21a1,1,0,0,0-.43.57c-.43,1.14-.83,2.29-1.22,3.44a.81.81,0,0,0,0,.61c.64.92,1.32,1.82,2,2.72.2.26.37.15.5-.08a6.55,6.55,0,0,0,.32-.58q1.29-2.59,2.56-5.2c.54-1.13,1.92-3.43,1.7-3.57C71.59,14.83,68.33,16.37,66.67,17.21Z" transform="translate(-2.48 -10.67)"/></svg>